<svg xmlns="http://www.w3.org/2000/svg" viewBox="0 0 485.96 371.54"><defs><style>.cls-1{fill:#1d1d1b;}</style></defs><g id="Layer_2" data-name="Layer 2"><g id="Layer_1-2" data-name="Layer 1"><path class="cls-1" d="M471.51,251.44A569.48,569.48,0,0,0,477,345.26q1.86,13.07,4.32,26l4.47-2.06c-15.29-7.67-29.41-17.4-44.56-25.31-15.43-8.06-32-13.43-49.36-14.88a123.7,123.7,0,0,0-29.28,1.06,6.54,6.54,0,0,0-3.27,1.35c-.62.55-.59,1.16.41,1a120.21,120.21,0,0,1,51.21,3.06c16.38,4.65,31.09,13.15,45.6,21.82,8.21,4.9,16.4,9.83,24.94,14.11.87.44,4.7-.81,4.47-2.05a567.71,567.71,0,0,1-9.83-92.76q-.31-13.32,0-26.66c0-1.14-4.59.28-4.62,1.46Z"/><path class="cls-1" d="M9.5,1.89C-6.54,36.8-.92,78,16.32,111.34c17.73,34.34,47.67,60.8,79.14,82.32,33.51,22.9,70.07,43.33,109.3,54.45a205.24,205.24,0,0,0,60.53,8.11c22.78-.52,45.23-4.84,67.93-6.46,21.1-1.51,43.22-.73,62.92,7.8,15.76,6.82,29.95,18.88,37,34.79a53.92,53.92,0,0,1,3.68,11.85c.16.83,4.87-.6,4.63-1.91-3.22-16.92-14.6-31-28.76-40.33-16.67-11-36.92-14.79-56.61-15.15-22.09-.39-43.91,3.36-65.81,5.58a234.93,234.93,0,0,1-34,1.35,196.49,196.49,0,0,1-30.08-3.69c-40.58-8.11-78.14-27.59-112.81-49.62C81,179.82,49.84,155.33,28.69,122.75,8.14,91.09-2,50.22,9.19,13.35A100.6,100.6,0,0,1,14.11.44c.37-.8-1.78-.27-2-.21C11.28.49,9.91,1,9.5,1.89Z"/></g></g></svg>