<svg aria-hidden="true" focusable="false" data-prefix="fad" data-icon="inventory"
     class="svg-inline--fa fa-inventory fa-w-20" role="img" xmlns="http://www.w3.org/2000/svg" viewBox="0 0 640 512">
  <g class="fa-group">
    <path class="fa-secondary" fill="#41B489"
          d="M624 0h-32a16 16 0 0 0-16 16v144H64V16A16 16 0 0 0 48 0H16A16 16 0 0 0 0 16v496h64v-32h512v32h64V16a16 16 0 0 0-16-16zm-48 416H64V224h512z"
          opacity="0.4"></path>
    <path class="fa-primary" fill="#41B489"
          d="M208 256h-96a16 16 0 0 0-16 16v96a16 16 0 0 0 16 16h96a16 16 0 0 0 16-16v-96a16 16 0 0 0-16-16zM464 0h-96a16 16 0 0 0-16 16v96a16 16 0 0 0 16 16h96a16 16 0 0 0 16-16V16a16 16 0 0 0-16-16zm-96 256h-96a16 16 0 0 0-16 16v96a16 16 0 0 0 16 16h96a16 16 0 0 0 16-16v-96a16 16 0 0 0-16-16z"></path>
  </g>
</svg>
