<svg xmlns="http://www.w3.org/2000/svg" xmlns:xlink="http://www.w3.org/1999/xlink" viewBox="0 0 382.63 449.57"><defs><style>.cls-1{fill:#fcea10;}.cls-2{fill:#fbbc10;}.cls-3{fill:url(#Naamloos_verloop_14);}.cls-4{fill:url(#Naamloos_verloop_24);}.cls-5{fill:url(#Naamloos_verloop_24-2);}.cls-6{fill:#b4dcce;}.cls-7{fill:#fdd29a;}.cls-8{fill:#fff;}.cls-9{fill:#6d4529;}</style><linearGradient id="Naamloos_verloop_14" x1="-167.05" y1="658.53" x2="14.7" y2="658.53" gradientTransform="translate(305.09 -27.76) scale(1.84 0.34)" gradientUnits="userSpaceOnUse"><stop offset="0" stop-color="#fcea10"/><stop offset="0.02" stop-color="#fce811"/><stop offset="0.42" stop-color="#facb24"/><stop offset="0.76" stop-color="#f9b82f"/><stop offset="1" stop-color="#f9b233"/></linearGradient><linearGradient id="Naamloos_verloop_24" x1="-162.61" y1="1446.81" x2="19.35" y2="1446.81" gradientTransform="matrix(1.03, -1.52, -0.09, -0.06, 430.26, 207.41)" gradientUnits="userSpaceOnUse"><stop offset="0" stop-color="#e2cd00"/><stop offset="0.24" stop-color="#e4c700"/><stop offset="0.54" stop-color="#e8b700"/><stop offset="0.89" stop-color="#f09d00"/><stop offset="1" stop-color="#f39200"/></linearGradient><linearGradient id="Naamloos_verloop_24-2" x1="-167.14" y1="842.09" x2="14.82" y2="842.09" gradientTransform="matrix(0.95, -1.55, 0.08, 0.05, 112.72, -1.07)" xlink:href="#Naamloos_verloop_24"/></defs><g id="Layer_2" data-name="Layer 2"><g id="Laag_1" data-name="Laag 1"><rect class="cls-1" x="34.91" y="182.04" width="168.62" height="165.64" transform="translate(161.85 -22.45) rotate(32.67)"/><rect class="cls-2" x="124.81" y="36.41" width="171.49" height="168.37" transform="translate(-4.62 232.73) rotate(-57.33)"/><rect class="cls-3" x="-1.45" y="108.6" width="333.51" height="172.21" transform="translate(-87.83 228.75) rotate(-57.33)"/><path class="cls-4" d="M325.23,101.88a331.53,331.53,0,0,0-37.72,22.34c-56.8,39.05-63.71,86-119.17,142.16a474.7,474.7,0,0,0-63.72,80.48L152,379Q241.39,238,330.83,96.88Z"/><path class="cls-5" d="M181.94,18.17a349,349,0,0,1-6.47,42.09c-14.34,65.76-51.95,92.3-81.32,164.45A524.69,524.69,0,0,1,46.87,314.6L3.79,288.25,184.33,11.18Z"/><path class="cls-6" d="M147.06,65.76,185.19,5.69l149,91.63Z"/><path d="M39.36,437.05H58.78c11.36,0,22.74-.37,34.05.3,2.93.17,7.61,3.27,8.09,5.69,1.1,5.65-4,6.35-8.31,6.36-27.69.05-55.39,0-83.08,0-6.57,0-9.6-2.95-9.53-9.6.56-53.45,1-106.9,1.67-160.35a20.37,20.37,0,0,1,3.26-10c33.71-53.22,56-92.25,91.05-147,.55-.85,18.28-27.5,53.67-80.83L176.07,1.84a10.28,10.28,0,0,1,10.6-.68L337.12,93.55c-6.73,11.28-24.13,40.51-41.93,69.14-27.4,44.07-25.54,40-39,61.4C226,271.84,196,319.71,165.6,367.27a36.09,36.09,0,0,1-13.86,12.19c-42.87,21.25-73,21.29-106.15,51.43C42.56,433.65,40.31,436,39.36,437.05ZM185.19,5.69c-34.14,53.13-162.9,253.75-168,267.55a27.61,27.61,0,0,0-1.4,6.85,163.48,163.48,0,0,0,8.88,20.47c.78,1.51,4.19,2.38,6.35,2.32,7.19-.22,14.37-.87,21.53-1.6,6.36-.66,10.6,1.25,12.63,7.84,2,6.33,5.12,12.3,6.91,18.66,1.65,5.84,4.93,7.18,10.44,6.48,6.86-.88,13.8-1.07,20.69-1.71,5.81-.54,9.3,1.79,11.34,7.36,2.38,6.47,5.34,12.74,8.28,19a10.9,10.9,0,0,0,3.9,4.87c1.86,1.34,10,3.71,20-.81a35.68,35.68,0,0,0,11.75-8.74l.58-.68q53.1-81.36,53.19-81.46h0L331.47,94.2C307.68,83,205.66,21.14,185.19,5.69ZM13.35,317.11c0,15.37,1.35,31.54-.36,47.39-1.88,17.35,4.08,27.14,19.11,36.34s26.62,12.75,42.38,2.5c13.52-8.78,29.05-14.47,43.05-21.22-2.74-5.87-5.39-10.86-7.44-16.08-7.74-19.69-7.67-19.72-28.49-18.28-1.93.13-3.91,0-5.8.28-7.12,1.23-11.64-1.09-13.52-8.52-1.21-4.79-3.87-9.22-5.05-14-2.15-8.78-6.71-11.93-16-10.22C32.72,316.85,23.86,316.51,13.35,317.11Z"/><path d="M219.4,449.4c-15.08,0-30.23.46-45.19-.28-5-.25-9.47-3.59-14.18-5.52,4.76-2.17,9.41-6.13,14.31-6.22q44.41-.88,88.91,0c4.57.09,8.92,3.84,13.37,5.89-4.51,2.05-8.74,5.61-13.56,5.88C248.63,449.91,234,449.41,219.4,449.4Z"/><path d="M125.38,449.26c-7.49-.72-25,2.67-24.45-6.41.51-8.31,17.1-5.16,27.59-5.73,5.71-.32,12.37-.79,17.15.29,5.22,1.17,8.77,4,13.05,6.17-4.21,1.89-7.81,4.52-12.81,5.47S134.49,449.26,125.38,449.26Z"/><path class="cls-7" d="M13.35,317.11c10.51-.6,19.37-.26,27.88-1.83,9.29-1.71,13.85,1.44,16,10.22,1.18,4.8,3.84,9.23,5.05,14,1.88,7.43,6.4,9.75,13.52,8.52,1.89-.32,3.87-.15,5.8-.28,20.82-1.44,20.75-1.41,28.49,18.28,2,5.22,4.7,10.21,7.44,16.08-14,6.75-29.53,12.44-43,21.22-15.76,10.25-27.42,6.65-42.38-2.5s-21-19-19.11-36.34C14.7,348.65,13.35,332.48,13.35,317.11Z"/><path class="cls-8" d="M325.93,92c5.72-3.85,20.61,2.83,24.38,12.56,1.68,4.35,1.52,9.88,4.72,19.59,2.57,7.8,4.63,8,13.57,24.45,7.73,14.2,8,17.31,7,20-2,5.62-8.71,8.67-13.79,9.22-8.59.94-14.92-5-18.23-8.16a33.6,33.6,0,0,1-8.4-13.14c-2-5.79-1.12-8.39-1.86-14.72-1.39-11.82-5.56-12.92-8.42-25.1C323.63,111.18,320.05,95.94,325.93,92Z"/><path class="cls-8" d="M373.54,192.2c-4.28-1.63-10.75,3.08-13.52,8.42-4.47,8.64,1.15,18.19,2.51,20.5,1.19,2,6.39,10.87,12.12,9.87s7.67-11.15,7.76-11.64c.8-4.52-.57-8.55-3.33-16.62C376.88,196.28,375.73,193,373.54,192.2Z"/><path class="cls-8" d="M157,50.54c10.42,8.16,19.53,9.52,23.93,9.79a32,32,0,0,0,6.87-.19c7.22-1.3,11.27-5.89,22.75-7.43,9.13-1.23,17.85,1.33,34.94,6.48C262.4,64.3,266.09,68,284,73.85c9.94,3.25,13.14,3.32,19.08,4.84h0c1.68.45,4,1.12,6.72,2,16.47,5.36,35,14.6,34.08,17.63-.7,2.3-12.51.63-18.92-.3C279.05,91.35,173.49,73.89,145,69.17Z"/><path class="cls-9" d="M69.28,291.69c-2-1.09,43.41-77.58,52.64-92,1.8-2.81,3.46-5.2,3.88-5,.74.38-2.94,8.95-3.79,10.91-5.6,13-11,20.92-21.22,37.16-10.35,16.46-10.8,17.92-19.32,31C73.57,285.83,69.62,291.88,69.28,291.69Z"/><path class="cls-9" d="M113.19,321.69c-2-1.08,43.42-77.58,52.64-92,1.8-2.81,3.46-5.2,3.88-5,.74.38-2.94,8.95-3.79,10.91-5.59,13-11,20.92-21.22,37.16-10.35,16.47-10.8,17.93-19.32,31C117.48,315.84,113.53,321.88,113.19,321.69Z"/></g></g></svg>