<svg xmlns="http://www.w3.org/2000/svg" xmlns:xlink="http://www.w3.org/1999/xlink" viewBox="0 0 728.88 728.88"><defs><style>.cls-1{fill:#42b389;}.cls-2{fill:url(#Naamloos_verloop_14);}.cls-3{fill:url(#Naamloos_verloop_24);}.cls-4{fill:url(#Naamloos_verloop_24-2);}.cls-5{fill:#6d4529;}.cls-6{fill:#fdd29a;}.cls-7,.cls-8{fill:#fff;}.cls-7{opacity:0.45;}.cls-9{fill:none;}</style><linearGradient id="Naamloos_verloop_14" x1="188.91" y1="325.3" x2="496.16" y2="325.3" gradientUnits="userSpaceOnUse"><stop offset="0" stop-color="#fcea10"/><stop offset="0.02" stop-color="#fce811"/><stop offset="0.42" stop-color="#facb24"/><stop offset="0.76" stop-color="#f9b82f"/><stop offset="1" stop-color="#f9b233"/></linearGradient><linearGradient id="Naamloos_verloop_24" x1="285.16" y1="372.74" x2="496.16" y2="372.74" gradientUnits="userSpaceOnUse"><stop offset="0" stop-color="#e2cd00"/><stop offset="0.24" stop-color="#e4c700"/><stop offset="0.54" stop-color="#e8b700"/><stop offset="0.89" stop-color="#f09d00"/><stop offset="1" stop-color="#f39200"/></linearGradient><linearGradient id="Naamloos_verloop_24-2" x1="188.91" y1="324.35" x2="345.21" y2="324.35" xlink:href="#Naamloos_verloop_24"/></defs><g id="Layer_2" data-name="Layer 2"><g id="Background_Round" data-name="Background Round"><rect class="cls-1" width="728.88" height="728.88" rx="212.6"/></g><g id="Beerpencil"><g id="All"><g id="Pencil_inside" data-name="Pencil inside"><path class="cls-2" d="M496.16,245.16,413.32,368.7l-5.06,7.88-.16-.1c-.41.6-.81,1.2-1.21,1.81l-21.56,32.14q-.06.09-53.2,81.46l-.58.68a35.49,35.49,0,0,1-11.74,8.74A27.1,27.1,0,0,1,305,503.74a12.62,12.62,0,0,1-5.13-1.62,10.58,10.58,0,0,1-3.66-4.35h0l-.24-.5c-2.94-6.24-5.89-12.51-8.27-19a13.42,13.42,0,0,0-2.52-4.45c-2.06-2.34-4.92-3.27-8.82-2.91-6.89.65-13.84.83-20.7,1.71-5.51.7-8.79-.64-10.43-6.47-1.79-6.37-5-12.34-6.92-18.67-1.71-5.54-5-7.78-9.77-7.94a19.88,19.88,0,0,0-2.85.1c-7.16.74-14.34,1.38-21.53,1.6-2.16.07-5.57-.81-6.35-2.32a163.35,163.35,0,0,1-8.88-20.46,27.73,27.73,0,0,1,1.4-6.86c1.93-5.21,21.51-37.1,47-77.63,9.08-14.46,18.92-30,29-45.86l1.17-1.84c17.06-26.89,34.67-54.49,50.23-78.81l0-.07.17-.26c.53-.84,1.9-3,2-3.16L328.17,191l.84-1.32.71-1.1.28-.44c14.33-22.88,22.87-35.84,25.66-40l.25-.38.22-.33c.12-.17.21-.32.29-.44l.23-.36h0l-.06.09a1.3,1.3,0,0,1-.1.15q-13.28,20.94-26.58,41.88l-9.74,15.34.13,0-2.17,3.39.22,0,.23,0h0a3,3,0,0,1,.42.06l.35.06.13,0,1.25.2.73.12.3,0a2.25,2.25,0,0,1,.36.06l.84.14.49.08c4.23.71,9.41,1.56,15.31,2.53l1.75.29,1.42.24,1.2.2h0l.81.13,1.18.2c42.53,7,114,18.67,150.83,24.09a24.48,24.48,0,0,0-.25,4h0c0,.47,0,.94,0,1.42C495.89,242.73,496,244,496.16,245.16Z"/><path class="cls-3" d="M496.16,245.16,413.32,368.7l-5.06,7.88-.16-.1c-.41.6-.81,1.2-1.21,1.81l-21.56,32.14q-.06.09-53.2,81.46l-.58.68a35.49,35.49,0,0,1-11.74,8.74A27.1,27.1,0,0,1,305,503.74l-8.79-6h0l-.24-.5c-2.94-6.24-5.89-12.51-8.27-19a13.42,13.42,0,0,0-2.52-4.45,472.6,472.6,0,0,1,56.31-69.08,344.29,344.29,0,0,0,37-44.65c.43-.59.84-1.19,1.25-1.78,25.33-36.23,40.5-68,80.88-95.73a332.66,332.66,0,0,1,33.75-20.3l1.44-.75C495.89,242.73,496,244,496.16,245.16Z"/><path class="cls-4" d="M345.21,212c-10.66,37-29.15,61.62-48.32,93.15L295.76,307a391,391,0,0,0-28.48,56,522.62,522.62,0,0,1-38.76,76.47,19.88,19.88,0,0,0-2.85.1c-7.16.74-14.34,1.38-21.53,1.6-2.16.07-5.57-.81-6.35-2.32a163.35,163.35,0,0,1-8.88-20.46,27.73,27.73,0,0,1,1.4-6.86c1.93-5.21,21.51-37.1,47-77.63,4.49-6.88,16.41-25.32,30.55-47.44,16.31-25.5,35.58-55.88,49.82-79.07l.45.07h.05l.2,0,.23,0h0a3,3,0,0,1,.42.06l.35.06.13,0,1.25.2.73.12.3,0a2.25,2.25,0,0,1,.36.06l.17,0,.23,0,.44.08.49.08,1.1.17.75.12,1.9.31,1.39.23,2.24.37.17,0,3.38.56,1.28.21,1.35.23,1.75.3.88.14.87.15,1.42.24,1.2.2h0l.81.13Z"/><path class="cls-5" d="M242.4,430.05c-2-1.09,43.42-77.58,52.64-92,1.8-2.82,3.47-5.2,3.88-5,.74.38-2.94,8.95-3.78,10.91-5.6,13-11,20.91-21.22,37.16-10.35,16.46-10.81,17.92-19.33,31C246.69,424.19,242.74,430.23,242.4,430.05Z"/><path class="cls-5" d="M286.31,460.05c-2-1.09,43.42-77.58,52.64-92,1.8-2.81,3.47-5.2,3.88-5,.74.38-2.94,8.95-3.78,10.91-5.6,13-11,20.92-21.22,37.16-10.35,16.46-10.81,17.92-19.33,31C290.6,454.2,286.65,460.24,286.31,460.05Z"/><path class="cls-6" d="M290.66,520.48c-14,6.75-29.53,12.44-43.05,21.22-15.76,10.25-27.42,6.65-42.38-2.5s-21-19-19.12-36.34c1.72-15.85.37-32,.37-47.39,10.51-.6,19.37-.26,27.88-1.83l1-.17.47-.07.51-.06c.21,0,.41,0,.62-.06h.1l.36,0h.1l.37,0c.32,0,.63,0,.94,0l.81,0,.3,0,.83.08.7.11.67.15.64.18.61.22c.26.11.52.22.77.35a7.66,7.66,0,0,1,1.42.88c.22.17.43.35.64.54l.31.3c.1.1.2.2.29.31s.38.44.56.67.33.45.49.69c0,0,0,0,0,0a12.67,12.67,0,0,1,.93,1.67c.14.31.28.62.41.94l.36.94a.14.14,0,0,1,0,.07h0q.39,1.14.72,2.46c1.18,4.8,3.84,9.23,5,14,1.88,7.42,6.39,9.74,13.52,8.52a55.76,55.76,0,0,1,5.8-.29,115.4,115.4,0,0,1,12.69-.49h0l.5,0,.48,0,.47.05.37.05a4.72,4.72,0,0,1,.56.08l.6.11.69.16a7.46,7.46,0,0,1,.84.26l.14,0a6.56,6.56,0,0,1,.77.32l.29.14.13.07a2,2,0,0,1,.25.14l.39.24c.19.12.38.25.56.39a8.3,8.3,0,0,1,.79.69l.34.34.45.51a9.29,9.29,0,0,1,.6.77l.25.36c.09.12.17.25.25.38.34.52.67,1.08,1,1.69h0c.66,1.25,1.33,2.7,2.05,4.4l.46,1.09c.77,1.86,1.61,4,2.56,6.41C285.27,509.62,287.92,514.61,290.66,520.48Z"/></g><g id="Pencil_outline" data-name="Pencil outline"><path id="Pencil_outline-2" data-name="Pencil outline" d="M496.32,246.38c-.06-.4-.12-.81-.16-1.22L413.32,368.7l-5.06,7.88-.16-.1c-.41.6-.81,1.2-1.21,1.81l-21.56,32.14q-.06.09-53.2,81.46l-.58.68a35.49,35.49,0,0,1-11.74,8.74A27.1,27.1,0,0,1,305,503.74a12.62,12.62,0,0,1-5.13-1.62,10.58,10.58,0,0,1-3.66-4.35h0l-.24-.5c-2.94-6.24-5.89-12.51-8.27-19a13.42,13.42,0,0,0-2.52-4.45c-2.06-2.34-4.92-3.27-8.82-2.91-6.89.65-13.84.83-20.7,1.71-5.51.7-8.79-.64-10.43-6.47-1.79-6.37-5-12.34-6.92-18.67-1.71-5.54-5-7.78-9.77-7.94a19.88,19.88,0,0,0-2.85.1c-7.16.74-14.34,1.38-21.53,1.6-2.16.07-5.57-.81-6.35-2.32a163.35,163.35,0,0,1-8.88-20.46,27.73,27.73,0,0,1,1.4-6.86c1.93-5.21,21.51-37.1,47-77.63,9.08-14.46,18.92-30,29-45.86l1.17-1.84c17.06-26.89,34.67-54.49,50.23-78.81l0-.07.17-.26c.53-.84,1.9-3,2-3.16L328.17,191l.84-1.32.71-1.1.28-.44c14.33-22.88,22.87-35.84,25.66-40l.25-.38.22-.33c.12-.17.21-.32.29-.44l.23-.36.86-1.33.21-.34c.08-.11.15-.23.22-.34l.38-.59c15.54,11.73,78.13,50.22,117.76,73l.12,0,1.51.42.26.07c1.41.41,3.08.91,4.95,1.52a176.64,176.64,0,0,1,17.39,6.74L359.8,139.52a10.3,10.3,0,0,0-10.61.68L322.78,180c-35.39,53.33-53.12,80-53.67,80.83-35.07,54.74-57.34,93.78-91.05,147a20.27,20.27,0,0,0-3.26,10c-.69,53.45-1.11,106.9-1.67,160.35-.07,6.66,3,9.62,9.52,9.61,27.7,0,55.4,0,83.09,0,3.91,0,8.41-.57,8.46-4.82h0a5.26,5.26,0,0,1-.15-1.41v-.11c-.48-2.43-5.16-5.53-8.09-5.7-11.31-.67-22.69-.29-34-.3H212.49c.95-1,3.19-3.4,6.23-6.16,32.06-29.17,61.33-30.15,102-49.43l.31-.14,3.8-1.85a36.06,36.06,0,0,0,13.86-12.2c30.45-47.56,60.43-95.43,90.57-143.18,13.49-21.37,11.63-17.33,39-61.4,10.63-17.1,21.12-34.41,29.27-48-.38-1.68-.81-3.74-1.16-5.95C496.39,246.87,496.36,246.63,496.32,246.38ZM247.61,541.7c-15.76,10.25-27.42,6.65-42.38-2.5s-21-19-19.12-36.34c1.72-15.85.37-32,.37-47.39,10.51-.6,19.37-.26,27.88-1.83l1-.17.47-.07.51-.06c.21,0,.41,0,.62-.06h.1l.36,0h.1l.37,0c.32,0,.63,0,.94,0l.81,0,.3,0a7.3,7.3,0,0,1,.83.08l.7.11.67.15.64.18.61.22a5.34,5.34,0,0,1,.77.35,7.66,7.66,0,0,1,1.42.88,8.3,8.3,0,0,1,.64.54l.31.3a2.87,2.87,0,0,1,.29.31,7.35,7.35,0,0,1,.56.67c.17.22.34.45.49.69,0,0,0,0,0,0a12.67,12.67,0,0,1,.93,1.67c.15.3.28.61.41.94s.25.61.36.94a.14.14,0,0,1,0,.07h0q.39,1.14.72,2.46c1.18,4.8,3.84,9.23,5,14,1.88,7.42,6.39,9.74,13.52,8.52a55.76,55.76,0,0,1,5.8-.29,115.4,115.4,0,0,1,12.69-.49h0l.5,0,.48,0,.47.05.37.05a4.72,4.72,0,0,1,.56.08,5.33,5.33,0,0,1,.6.11,7,7,0,0,1,.69.16,7.46,7.46,0,0,1,.84.26l.14,0a6.56,6.56,0,0,1,.77.32l.29.14.13.07a2,2,0,0,1,.25.14l.39.24c.19.12.38.25.56.39a8.3,8.3,0,0,1,.79.69,3.64,3.64,0,0,1,.34.34l.45.51a9.29,9.29,0,0,1,.6.77l.25.36c.09.12.17.25.25.38.34.52.67,1.08,1,1.69h0c.66,1.25,1.33,2.7,2.05,4.4l.46,1.09c.77,1.86,1.61,4,2.56,6.41,2,5.22,4.7,10.21,7.44,16.08C276.66,527.23,261.13,532.92,247.61,541.7Z"/><path id="Long_line" data-name="Long line" d="M392.52,587.76c-15.08,0-30.23.46-45.18-.28-5-.25-9.47-3.59-14.19-5.52,4.77-2.17,9.42-6.13,14.32-6.23q44.41-.87,88.9,0c4.57.08,8.92,3.83,13.37,5.89-4.5,2-8.73,5.61-13.56,5.88C421.75,588.27,407.09,587.77,392.52,587.76Z"/><path id="Small_line" data-name="Small line" d="M331.85,581.94c-4.21,1.89-7.81,4.52-12.81,5.47s-11.42.21-20.53.21c-7-.67-22.61,2.22-24.31-4.68h0a5.26,5.26,0,0,1-.15-1.41v-.11a1.34,1.34,0,0,1,0-.2c.51-8.31,17.1-5.16,27.59-5.73,5.7-.31,12.36-.78,17.15.29C324,576.94,327.57,579.81,331.85,581.94Z"/></g><path id="Glass_effect" data-name="Glass effect" class="cls-7" d="M476.08,217c-5.12-1.31-8.23-1.55-15.49-3.73-1.06-.32-2.21-.68-3.47-1.09-17.9-5.84-21.59-9.55-38.53-14.66s-25.82-7.7-34.94-6.48c-11.48,1.54-15.53,6.13-22.76,7.43a31.88,31.88,0,0,1-6.86.19,36.08,36.08,0,0,1-5.29-.72c-.33-.07-.66-.14-1-.23s-.53-.12-.79-.19-.77-.2-1.14-.32-.46-.13-.68-.21a1.09,1.09,0,0,1-.24-.07l-1-.32-1-.35c-.71-.27-1.43-.56-2.17-.88s-1.5-.68-2.27-1.07c-.25-.12-.49-.25-.73-.38-.52-.27-1-.54-1.48-.82l-.75-.44c-.55-.32-1.06-.64-1.53-.95s-1.1-.73-1.56-1.05l-.74-.53-.52-.38-1.32-1-.2-.16.28-.44c14.33-22.88,22.87-35.84,25.66-40l.25-.38.22-.33c.12-.17.21-.32.29-.44l.08-.11a1.3,1.3,0,0,0,.1-.15l.06-.09.85-1.34.21-.34c.08-.11.15-.23.22-.34l.38-.59C373.86,155.78,436.45,194.27,476.08,217Z"/><g id="Beersspill"><path class="cls-8" d="M546.66,330.56c-4.28-1.64-10.75,3.07-13.51,8.42-4.47,8.63,1.14,18.19,2.5,20.5,1.2,2,6.39,10.87,12.12,9.87s7.67-11.16,7.76-11.64c.81-4.52-.57-8.56-3.32-16.62C550,334.64,548.86,331.4,546.66,330.56Z"/><path class="cls-8" d="M548.75,307c-2,5.62-8.71,8.67-13.78,9.22-8.6.94-14.92-5-18.23-8.15a33.52,33.52,0,0,1-8.4-13.15c-2-5.79-1.12-8.39-1.86-14.72-1.39-11.82-5.56-12.92-8.42-25.1-.14-.58-.3-1.26-.47-2-.38-1.68-.81-3.74-1.16-5.95,0-.25-.07-.49-.11-.74-.06-.4-.12-.81-.16-1.22-.16-1.21-.27-2.43-.33-3.63,0-.48,0-.95,0-1.42h0a24.48,24.48,0,0,1,.25-4l.13,0-.12-.08a.13.13,0,0,1,0,.06C459.18,230.68,387.74,219,345.21,212l-1.18-.2-.81-.13h0l-1.2-.2-1.42-.24-.87-.15-2.63-.44-1.35-.23-1.28-.21-3.38-.56-.17,0-2.24-.37-1.39-.23-1.9-.31-.75-.12-2-.33-.23,0-.17,0a2.25,2.25,0,0,0-.36-.06l-.3,0-.73-.12-1.25-.2-.13,0-.35-.06a3,3,0,0,0-.42-.06h0l-.23,0-.22,0,2.17-3.39-.13,0,9.74-15.34,1.32,1,.52.38.74.53c.46.32,1,.68,1.56,1.05s1,.63,1.53.95c.24.16.49.3.75.44.47.28,1,.55,1.48.82.24.13.48.26.73.38.72.38,1.47.73,2.27,1.07s1.42.61,2.17.88l1,.35,1,.32a1.09,1.09,0,0,0,.24.07c.22.08.45.15.68.21s.75.22,1.14.32.52.14.79.19.65.16,1,.23a36.08,36.08,0,0,0,5.29.72,31.88,31.88,0,0,0,6.86-.19c7.23-1.3,11.28-5.89,22.76-7.43,9.12-1.22,17.85,1.33,34.94,6.48s20.63,8.82,38.53,14.66c1.26.41,2.41.77,3.47,1.09,7.26,2.18,10.37,2.42,15.49,3.73l.12,0,1.51.42.26.07c1.41.41,3.08.91,4.95,1.52a176.64,176.64,0,0,1,17.39,6.74c3.71,1.67,7.08,3.35,9.81,4.91h0c5.54,2.21,11.18,6.71,13.29,12.18,1.69,4.35,1.53,9.88,4.73,19.59,2.57,7.8,4.62,8,13.57,24.45C549.46,301.15,549.71,304.26,548.75,307Z"/></g></g><rect class="cls-9" x="110.87" y="110.83" width="507.14" height="507.14"/></g></g></svg>