<?xml version="1.0" encoding="utf-8"?>
<!-- Generator: Adobe Illustrator 26.0.2, SVG Export Plug-In . SVG Version: 6.00 Build 0)  -->
<svg version="1.0" id="Layer_1" xmlns="http://www.w3.org/2000/svg" xmlns:xlink="http://www.w3.org/1999/xlink" x="0px" y="0px"
	 viewBox="0 0 1080 1080">
<g>
	<path d="M465.8,660.4c2-9.7,3.9-19.4,5.9-29.1c4.6-22.6,9.3-45.3,13.8-67.9c0.6-3,1.8-4.1,4.9-4c5.4,0.3,10.8,0.1,16.2,0.1
		c2.1,0,3.1,0.6,3.5,3c5,27.1,10.1,54.1,15.2,81.1c0.9,4.7,1.7,9.4,2.6,14.1c0.2,0.9,0.5,1.8,1.4,2.7c1-4.8,2-9.7,3-14.5
		c3.2-16.8,6.3-33.6,9.5-50.4c2-10.8,4.2-21.6,6.1-32.5c0.5-2.8,1.7-3.5,4.3-3.4c4.9,0.2,9.8,0,15.1,0c-2,9.2-3.9,17.8-5.8,26.4
		c-6.9,31.2-13.9,62.5-20.8,93.7c-1.6,7.2-0.6,5.7-7.3,5.8c-4.7,0.1-9.4-0.1-14,0.1c-2.4,0.1-3.4-0.9-3.8-3.2
		c-5.5-30-11.1-60-16.7-89.9c-0.5-2.6-0.9-5.3-1.4-7.9c-0.3,0-0.7,0-1,0c-1.1,5.3-2.3,10.6-3.3,15.9c-5.6,27.4-11.3,54.9-16.8,82.3
		c-0.4,2.2-1.4,3-3.6,2.9c-5.8-0.1-11.5-0.2-17.3,0c-2.6,0.1-2.9-1.2-3.3-3.2c-4-19-8.1-37.9-12.2-56.9c-4.5-21.2-9-42.4-13.5-63.6
		c-0.1-0.6-0.2-1.1-0.3-2.4c6.7,0,13.1-0.1,19.5,0.2c0.8,0,1.9,2.4,2.2,3.9c1.4,7.5,2.6,15.1,3.9,22.6c4.1,23.7,8.3,47.3,12.4,71
		c0.2,1.1,0.6,2.2,0.8,3.4C465.3,660.4,465.5,660.4,465.8,660.4z"/>
	<path d="M293.8,395.6c6.3,0,11.9,0,17.8,0c0.1,1.3,0.3,2.4,0.3,3.6c0,39.4,0,78.7,0.1,118.1c0,3-0.6,4.2-3.9,4.1
		c-7.6-0.3-15.1-0.2-22.7,0c-2.5,0.1-3.6-0.9-4.3-3.1c-8.1-23.8-16.4-47.6-24.6-71.4c-3.2-9.2-6.3-18.3-9.5-27.5
		c-0.1-0.4-0.4-0.8-1.3-1.2c-0.1,1.1-0.3,2.1-0.3,3.2c0,31.9,0,63.8,0.1,95.7c0,3.3-0.9,4.5-4.2,4.2c-3.9-0.3-7.9-0.1-12.1-0.1
		c0-42,0-83.7,0-125.7c1-0.1,2.1-0.2,3.1-0.2c6.1,0,12.2-0.1,18.4,0c8,0.1,6.1-1.4,8.9,6.3c7.1,20,13.9,40.1,20.9,60.1
		c4,11.7,8.1,23.3,12.1,35c0.2,0.5,0.5,1,1.4,1.4C293.8,464.2,293.8,430.1,293.8,395.6z"/>
	<path d="M684.3,581.1c-0.1,0.9-0.2,1.8-0.2,2.7c0,32.5,0,65,0.1,97.5c0,3.1-0.7,4.4-4,4.1c-3-0.3-6-0.3-9,0
		c-3.3,0.3-4.2-1.1-3.9-4.1c0.2-3,0.1-6,0.1-9c0-36.2,0-72.5-0.1-108.7c0-3.2,0.7-4.4,4.2-4.3c7.3,0.3,14.6,0.1,21.9,0
		c2.2,0,3.2,0.7,3.9,2.7c6.8,19.9,13.7,39.9,20.6,59.8c4.6,13.2,9.1,26.5,13.7,39.7c0.2,0.7,0.6,1.2,1.4,2.6
		c0.2-1.5,0.4-2.2,0.4-2.9c0-32.5,0-65-0.1-97.5c0-3.4,0.9-4.7,4.4-4.4c3.5,0.3,7,0.2,10.4,0c2.6-0.1,3.2,0.9,3.2,3.3
		c-0.1,18,0,36,0,54c0,21.5-0.1,42.9,0.1,64.4c0,3.2-0.8,4.4-4.2,4.3c-7.5-0.3-15.1-0.2-22.7,0c-2.3,0-3.4-0.7-4.2-2.9
		c-5.7-16.5-11.5-33-17.2-49.6c-6-17.3-12-34.6-18.1-51.9C684.8,581.1,684.5,581.1,684.3,581.1z"/>
	<path d="M631.4,469.7c-0.9-5.9-4.9-9.4-10.4-11.2c-0.9-0.3-1.7-0.6-3.3-1.1c1.6-0.8,2.6-1.4,3.7-1.9c6-2.9,9.9-7.6,11.9-13.8
		c2.9-8.9,3-17.9,0.7-26.9c-2.4-9.8-8.7-15.9-18.5-17.9c-4.2-0.9-8.5-1.4-12.8-1.4c-11.8-0.2-23.5,0.1-35.3-0.2
		c-3.6-0.1-4.4,1.1-4.3,4.5c0.1,38.9,0.1,77.8,0.1,116.6c0,0.8-0.2,1.8,0.1,2.5c0.4,0.9,1.3,2.2,2,2.2c5.7,0.2,11.4,0.1,17.6,0.1
		V517c0-16,0.1-31.9-0.1-47.9c0-3.2,1-4.2,4.1-4c3.3,0.3,6.7-0.2,10.1,0.1c8.9,0.8,13.5,2.3,15.2,11.1c0.4,2.1,0.8,4.2,0.9,6.4
		c0.4,8.8,0.7,17.7,1.2,26.5c0.2,3.3,0.6,6.6,1.1,10c0.1,0.7,0.9,1.9,1.4,1.9c6.3,0.1,12.6,0.1,18.5,0.1c-0.6-10.8-1-21-1.7-31.2
		C633.1,483.2,632.4,476.5,631.4,469.7z M609.9,445.8c-3.7,3.6-8.5,3.7-13,4.2c-4.5,0.5-9,0.1-14,0.1v-6c0-9.9,0.1-19.9-0.1-29.8
		c-0.1-3.3,1-4.2,4.1-3.9c4.3,0.3,8.6,0,12.9,0.5c10.5,1.2,14.9,5.5,15.4,16.2C615.5,433.7,615.3,440.5,609.9,445.8z"/>
	<path d="M205.3,600.6c-0.2-7.2-1.7-14.5-3.5-21.5c-2.3-9.2-8.4-15.5-17.2-18.9c-8.2-3.2-16.9-3.9-25.5-2.6
		c-5.3,0.8-10.9,2.1-15.6,4.7c-10.1,5.4-14.7,15-16,25.9c-1.4,11.7-1.8,23.5-2.7,35.4c0.8,11.4,1.2,22.9,2.6,34.3
		c1.9,15.6,10.8,25.6,24.8,28.5c9.8,2,19.8,2,29.5-0.9c7.9-2.4,14.2-7.2,18-14.9c3.5-7,5-14.6,5.2-22.2
		C205.5,632.4,205.7,616.5,205.3,600.6z M185.3,633c-0.3,8.8-1,17.7-3,26.2c-2.3,10-9.9,14.4-20,13.2c-7.3-0.8-12.4-5.7-14.3-15
		c-1.3-6.3-1.8-12.7-2.3-19.2c-0.4-5.4-0.1-10.8-0.1-16.2c-0.1,0-0.3,0-0.4,0c0.5-9.8,0.8-19.6,1.7-29.3c0.5-6.2,2.6-12.1,7.4-16.3
		c9.6-8.6,24.8-3.8,28.2,9c1.4,5.2,2.1,10.8,2.3,16.2C185.3,612.1,185.7,622.6,185.3,633z"/>
	<path d="M203.7,395.4c0,1.8,0,3.1,0,4.4c0,24-0.1,48,0.1,72c0.1,8.9,0.3,17.7-1.8,26.4c-3.7,15.1-13.2,23.3-28.7,24.8
		c-9.2,0.9-18.4,0.7-27.3-2.4c-12.1-4.2-17.4-13.8-19.3-25.5c-0.9-5.7-1.1-11.7-1.2-17.5c-0.1-26,0-52.1-0.1-78.1
		c0-3.5,1.1-4.3,4.3-4.1c3.9,0.2,7.9,0.2,11.9,0c2.9-0.2,3.6,0.9,3.6,3.7c-0.1,27.8-0.2,55.7,0.1,83.5c0.1,5.5,1.4,11.2,3.3,16.3
		c2.8,7.5,10.1,9.9,17.7,9.5c8.2-0.4,14.3-5.2,16-12.6c1.1-4.5,1.8-9.2,1.9-13.8c0.2-27.5,0.1-54.9,0-82.4c0-3.2,0.7-4.5,4.2-4.3
		C193.3,395.7,198.2,395.4,203.7,395.4z"/>
	<path d="M674.8,484.3c0.5,4,0.8,7.6,1.5,11.3c1.6,9.3,7.1,13.2,17.6,12.9c8.5-0.3,13.8-5.5,14.9-14c1.2-9.4-2.5-16.3-10.1-21.4
		c-9.6-6.5-19.6-12.5-29-19.3c-17.5-12.7-15.6-38.8-6.3-49.6c4.8-5.6,11.1-8.7,18.2-10c8.8-1.5,17.7-1.7,26.4,0.6
		c13.2,3.6,18.3,12.6,19.7,24.1c0.3,2.5,0.3,5,0.5,7.5c0.2,2-0.5,3.1-2.8,3.1c-4.9-0.1-9.8-0.1-14.8,0c-2.1,0-2.5-0.8-2.7-2.8
		c-0.3-3.3-0.5-6.8-1.6-9.8c-2.6-7-7.8-9.4-16.6-8.6c-6.1,0.6-11,5-12.4,11.3c-2,8.7,0.9,15.7,8.1,20.6c9.3,6.4,18.8,12.3,28.1,18.7
		c6.1,4.2,11.8,9,13.8,16.5c3.4,13.2,3.7,26.2-5.5,37.5c-4.8,5.9-11.6,8.5-19.1,9.6c-10,1.6-19.8,1.2-29.4-1.8
		c-8.1-2.5-13.5-8-15.8-15.9c-1.6-5.8-1.9-12-2.5-18c-0.1-0.8,1.2-2.4,2-2.5C662.9,484.2,668.8,484.3,674.8,484.3z"/>
	<path d="M375.8,395.5c6.6,0,12.8-0.1,19,0.2c0.9,0,2.1,2.1,2.4,3.4c3,13.2,5.9,26.4,8.8,39.6c4.3,19.8,8.6,39.5,13,59.3
		c0.1,0.4,0.4,0.8,1.1,2.1c0.8-3,1.4-5.2,1.9-7.4c7.2-31.5,14.4-63.1,21.6-94.6c0.2-1,1.5-2.5,2.3-2.5c5.7-0.2,11.5-0.1,17.7-0.1
		c-0.9,3.5-1.6,6.6-2.4,9.6c-8.5,32.3-17,64.6-25.5,97c-1.5,5.6-2.9,11.1-4.6,16.6c-0.3,1.1-2,2.5-3,2.5c-6.1,0.2-12.2,0-18.3,0.2
		c-2.3,0.1-2.7-1.3-3.2-3.1c-4.8-19.3-9.7-38.6-14.6-57.9c-5.1-20.3-10.2-40.7-15.4-61C376.3,398.3,376.2,397.1,375.8,395.5z"/>
	<path d="M497.9,410.9c-0.1,1.7-0.2,2.9-0.2,4.2c0,10,0.1,19.9-0.1,29.9c0,2.7,0.8,3.5,3.5,3.5c11.2-0.1,22.3,0,33.5-0.1
		c2.7,0,3.7,0.7,3.5,3.5c-0.3,3.8,0.9,8.8-1,11c-1.7,1.9-7,0.7-10.6,0.8c-8.4,0.1-16.8,0.1-25.2,0c-2.5,0-3.6,0.5-3.6,3.4
		c0.2,11.8,0.1,23.5,0,35.3c0,2.8,1,3.4,3.5,3.4c12.2-0.1,24.5,0,36.7-0.1c3,0,4.5,0.7,4.1,4c-0.3,2.6-0.2,5.3,0,7.9
		c0.2,2.9-0.6,4-3.7,4c-18.8-0.1-37.7-0.1-56.5,0c-2.9,0-3.6-0.9-3.6-3.7c0.1-39.5,0.1-79,0-118.4c0-2.9,0.7-3.9,3.8-3.9
		c18.4,0.1,36.7,0.1,55.1,0c3,0,4.1,0.8,3.9,3.8c-0.2,2.7-0.2,5.5,0,8.3c0.2,2.7-0.8,3.5-3.5,3.5c-11.8-0.1-23.5-0.1-35.3-0.1
		C500.8,410.9,499.5,410.9,497.9,410.9z"/>
	<path d="M922.5,669.8c0,4.8,0,9.1,0,13.4c0,2.7-1.9,2.3-3.5,2.3c-16.9,0-33.8,0-50.7,0c-3,0-5.9,0-9.2,0c-0.1-3.1-0.4-5.8-0.4-8.5
		c0-37.9,0-75.8-0.1-113.7c0-2.9,0.6-3.9,3.7-3.9c18.5,0.1,36.9,0.1,55.4,0c2.7,0,4,0.6,3.7,3.6c-0.3,3-0.2,6,0,9
		c0.2,2.6-0.9,3.2-3.3,3.2c-12-0.1-24,0-36-0.1c-2.9,0-3.9,0.7-3.9,3.8c0.2,10,0.2,19.9,0,29.9c0,2.9,0.7,4,3.8,3.9
		c11-0.2,22.1,0,33.1-0.1c2.7,0,3.6,0.9,3.5,3.5c-0.2,2.6-0.2,5.3,0,7.9c0.2,2.9-0.8,4-3.8,3.9c-10.8-0.2-21.6,0-32.4-0.1
		c-3.1,0-4.2,0.7-4.1,4c0.2,11.4,0.2,22.8,0,34.2c-0.1,3.3,1.1,4,4.1,4c11.9-0.2,23.7-0.1,35.6-0.1
		C919.3,669.8,920.6,669.8,922.5,669.8z"/>
	<path d="M582.7,559.4c6.7,0,13.3,0,19.9,0c12.7,0,25.4,0.1,38.1-0.1c2.8,0,4,0.7,3.7,3.6c-0.2,2.6-0.2,5.3,0,7.9
		c0.3,3.2-0.7,4.4-4.1,4.3c-11.2-0.2-22.3-0.1-33.5-0.1c-5,0-5,0-5,5.1c0,9.6,0.1,19.2-0.1,28.8c-0.1,3,0.9,3.6,3.7,3.6
		c10.8-0.1,21.6,0,32.4-0.1c2.8,0,3.9,0.7,3.7,3.6c-0.2,2.9-0.2,5.8,0,8.6c0.1,2.4-0.8,3.1-3.1,3.1c-10.9-0.1-21.8,0.1-32.7-0.1
		c-3,0-3.9,0.8-3.9,3.8c0.2,11.4,0.2,22.8,0,34.2c0,3.1,0.7,4.1,4,4.1c12.1-0.2,24.2,0,36.3-0.1c2.7,0,3.6,0.8,3.4,3.5
		c-0.2,3-0.1,6,0,9c0.1,2.3-0.6,3.2-3.1,3.2c-19.1-0.1-38.1-0.1-57.2,0c-2.1,0-3.1-0.6-3.1-2.8c0-40.5,0-81.1,0.1-121.6
		C582.2,560.6,582.4,560.3,582.7,559.4z"/>
	<path d="M956.1,395.4c-3.8,8.5-7.2,16.1-10.6,23.8c-7.9,17.6-15.7,35.2-23.5,52.9c-0.5,1.1-0.5,2.6-0.5,3.8c0,13.9-0.1,27.8,0,41.8
		c0,2.8-0.7,3.8-3.6,3.7c-4.2-0.2-8.4-0.2-12.6,0c-3.1,0.2-4.2-0.7-4.1-4c0.2-10.9-0.3-21.9,0.2-32.7c0.4-8.7-1.8-16.4-5.3-24.2
		c-9.3-21.3-18.2-42.7-27.5-64.6c1.3-0.2,2.3-0.4,3.3-0.4c5.3,0,10.6,0.1,15.8-0.1c2.4-0.1,3.3,0.9,4.1,3
		c6.4,17.3,12.9,34.6,19.4,51.8c0.4,0.9,0.9,1.8,1.7,3.6c2-5.1,3.6-9.2,5.2-13.4c5.4-14,10.8-27.9,16.1-41.9c0.9-2.3,2-3.1,4.4-3
		C944.2,395.6,949.7,395.4,956.1,395.4z"/>
	<path d="M288.1,559.7c0,5.1,0,10.1,0,15.4c-6.6,0-12.9,0-19.3,0c-5.3,0-10.6,0.1-15.8,0c-2.5-0.1-3.3,0.8-3.3,3.3
		c0.1,10.4,0.1,20.9,0,31.3c0,3,1.1,3.6,3.8,3.6c9.8-0.1,19.7,0,29.5-0.1c2.8,0,3.9,0.8,3.7,3.7c-0.2,2.6-0.2,5.3,0,7.9
		c0.3,3-1.1,3.6-3.8,3.6c-9.7-0.1-19.4,0.1-29.2-0.1c-3.1-0.1-4.1,0.7-4.1,4c0.2,16.3,0,32.6,0.1,48.9c0,3.3-0.8,4.5-4.2,4.3
		c-5-0.3-10.1-0.1-15.5-0.1c-0.2-2.9-0.5-5.6-0.5-8.3c0-37.9,0-75.8,0-113.7c0-2.1-0.3-4,3-3.9c17.8,0.1,35.5,0.1,53.3,0.1
		C286.6,559.4,287.3,559.6,288.1,559.7z"/>
	<path d="M816.8,521.3c0-2.1,0-3.5,0-4.9c0-33.7,0-67.4,0.1-101.1c0-3.4-0.8-4.6-4.3-4.5c-7.2,0.3-14.4,0-21.6,0.1
		c-2.4,0-3.5-0.6-3.3-3.2c0.2-3.2,0.1-6.5,0-9.7c-0.1-2.2,0.8-2.9,3-2.9c24,0.1,48,0.2,71.9,0.2c2.2,0,3,0.6,2.9,2.9
		c-0.1,3.2-0.2,6.5,0,9.7c0.1,2.5-1,3-3.2,3c-7.2-0.1-14.4,0.1-21.6-0.1c-3.4-0.1-4.5,0.7-4.5,4.3c0.1,33.9,0,67.9,0.2,101.8
		c0,3.4-0.9,4.6-4.4,4.4C827.1,521.1,822.2,521.3,816.8,521.3z"/>
	<path d="M388.1,685.3c-6.1,0-11.8,0.1-17.4-0.1c-0.8,0-1.8-1.4-2.3-2.3c-0.4-0.8-0.1-1.9-0.1-2.8c0-33.3,0-66.7,0-100
		c0-1.4,0-2.8,0-4.6c-1.6-0.1-2.8-0.3-4.1-0.3c-6.8,0-13.7-0.2-20.5,0.1c-3.3,0.1-4.2-1-3.9-4.1c0.2-2.9,0.2-5.8,0-8.6
		c-0.1-2.3,0.7-3.2,3.1-3.1c6.6,0.1,13.2,0,19.8,0c16.9,0,33.8,0.1,50.7-0.1c2.9,0,3.9,0.8,3.6,3.7c-0.2,3-0.2,6,0,9
		c0.1,2.3-0.8,3.2-3.1,3.1c-6.8-0.1-13.7,0-20.5,0c-4.9,0-4.9,0-4.9,4.8c0,32,0,64.1,0,96.1C388.5,679,388.3,681.9,388.1,685.3z"/>
	<path d="M814.3,630c0,17.4,0,34.8,0,52.2c0,2.6-0.9,3.3-3.4,3.2c-4.2-0.2-8.4-0.2-12.6,0c-3.4,0.2-3.6-1.5-3.6-4.2
		c0.1-33.6,0-67.2,0-100.8c0-5.3,0-5.3-5.5-5.3c-6.6,0-13.2-0.2-19.8,0.1c-3.1,0.1-4-1-3.8-3.9c0.2-2.9,0.1-5.8,0-8.6
		c-0.1-2.2,0.5-3.2,3-3.2c24,0.1,48,0.1,72,0c2.2,0,3,0.7,2.9,2.9c-0.1,3.1-0.2,6.2,0,9.4c0.2,2.7-0.7,3.6-3.4,3.5
		c-7.3-0.2-14.6,0.1-22-0.1c-3-0.1-3.9,0.8-3.9,3.8c0.1,17,0.1,34.1,0.1,51.1C814.5,630,814.4,630,814.3,630z"/>
	<path d="M772.5,458.3c0,19.7-0.1,39.4,0.1,59c0,3.2-0.9,4.2-4,4c-4.1-0.3-8.2-0.3-12.2,0c-3.3,0.2-4-1-4-4.1
		c0.1-38,0.1-76.1,0.1-114.1c0-8,0-8,7.9-8c2.9,0,5.8,0.2,8.6-0.1c3-0.2,3.6,1,3.6,3.7C772.5,418.7,772.5,438.5,772.5,458.3z"/>
	<path d="M340.4,457.9c0-19.5,0.1-39.1-0.1-58.6c0-2.9,0.7-4.1,3.8-3.9c4.2,0.2,8.4,0.2,12.6,0c2.9-0.2,4,0.7,3.9,3.8
		c-0.2,5.9-0.1,11.7-0.1,17.6c0,33.4,0,66.9,0.1,100.3c0,3.2-0.6,4.6-4.1,4.3c-3.8-0.3-7.7-0.1-11.5-0.1c-4.6,0-4.6,0-4.6-4.8
		C340.4,497,340.4,477.4,340.4,457.9z"/>
	<path d="M949,667.6c6.1,0,10.2,4.1,10.1,10.1c-0.1,6.2-4.1,10.2-10.1,10.2c-6.1,0-10.5-4.2-10.6-9.8
		C938.2,671.9,942.6,667.5,949,667.6z"/>
</g>
</svg>
