<svg height="100%" width="100%" id="svg" viewBox="0 0 1440 500" xmlns="http://www.w3.org/2000/svg"
     class="transition duration-300 ease-in-out delay-150">
  <path
    d="M 0,500 C 0,500 0,125 0,125 C 71.94258373205744,105.69856459330144 143.8851674641149,86.39712918660288 252,94 C 360.1148325358851,101.60287081339712 504.401913875598,136.11004784688993 611,152 C 717.598086124402,167.88995215311007 786.5071770334929,165.16267942583733 862,147 C 937.4928229665071,128.83732057416267 1019.5693779904304,95.23923444976077 1117,89 C 1214.4306220095696,82.76076555023923 1327.2153110047848,103.88038277511961 1440,125 C 1440,125 1440,500 1440,500 Z"
    stroke="none" stroke-width="0" fill="#41b48966" class="transition-all duration-300 ease-in-out delay-150"
    transform="rotate(-180 720 250)"></path>
  <path
    d="M 0,500 C 0,500 0,250 0,250 C 85.56937799043064,225.35885167464116 171.13875598086128,200.71770334928232 274,212 C 376.8612440191387,223.28229665071768 497.01435406698556,270.4880382775119 595,275 C 692.9856459330144,279.5119617224881 768.8038277511963,241.33014354066984 846,227 C 923.1961722488037,212.66985645933016 1001.7703349282297,222.19138755980862 1101,230 C 1200.2296650717703,237.80861244019138 1320.1148325358852,243.9043062200957 1440,250 C 1440,250 1440,500 1440,500 Z"
    stroke="none" stroke-width="0" fill="#41b48988" class="transition-all duration-300 ease-in-out delay-150"
    transform="rotate(-180 720 250)"></path>
  <path
    d="M 0,500 C 0,500 0,375 0,375 C 89.08133971291866,384.27272727272725 178.16267942583733,393.54545454545456 273,381 C 367.8373205741627,368.45454545454544 468.43062200956933,334.09090909090907 563,344 C 657.5693779904307,353.90909090909093 746.1148325358854,408.09090909090907 849,416 C 951.8851674641146,423.90909090909093 1069.11004784689,385.5454545454546 1170,371 C 1270.88995215311,356.4545454545454 1355.4449760765551,365.7272727272727 1440,375 C 1440,375 1440,500 1440,500 Z"
    stroke="none" stroke-width="0" fill="#41b489ff" class="transition-all duration-300 ease-in-out delay-150"
    transform="rotate(-180 720 250)"></path>
</svg>
